<svg width="228" height="48" viewBox="0 0 228 48" fill="none" xmlns="http://www.w3.org/2000/svg">
<g clip-path="url(#clip0_3743_2451)">
<path d="M1.86963 17.5435H6.77134L6.47104 18.9481H3.36145L2.88678 21.1374H5.85106L5.57013 22.5421H2.58648L1.77275 26.4363H0L1.86963 17.5532V17.5435ZM6.23855 26.4266H7.94349L9.96811 16.8751H8.26317L6.23855 26.4266ZM16.1679 23.6755C16.2648 23.1911 16.3326 22.7068 16.3326 22.2127C16.3326 20.5465 15.267 19.7134 13.6492 19.7134C11.4987 19.7134 9.91968 21.6702 9.91968 23.7142C9.91968 25.7582 11.1887 26.5816 13.0777 26.5816C13.7752 26.5816 14.5017 26.417 15.1604 26.2135L15.3736 24.867C14.7342 25.1576 14.0658 25.3417 13.3586 25.3417C12.1865 25.3417 11.5374 24.8961 11.5374 23.6852H16.1582L16.1679 23.6755ZM11.7699 22.513C12.0993 21.6121 12.5643 20.9728 13.6202 20.9728C14.337 20.9728 14.7051 21.3699 14.7051 22.0674C14.7051 22.2224 14.6955 22.358 14.6664 22.513H11.7796H11.7699ZM23.2396 23.6755C23.3461 23.1911 23.4042 22.7068 23.4042 22.2127C23.4042 20.5465 22.3386 19.7134 20.7209 19.7134C18.5703 19.7134 16.9913 21.6702 16.9913 23.7142C16.9913 25.7582 18.2603 26.5816 20.1493 26.5816C20.8468 26.5816 21.5734 26.417 22.2418 26.2135L22.4549 24.867C21.8155 25.1576 21.1471 25.3417 20.44 25.3417C19.2678 25.3417 18.6188 24.8961 18.6188 23.6852H23.2396V23.6755ZM18.8513 22.513C19.1806 21.6121 19.6359 20.9728 20.7015 20.9728C21.4184 20.9728 21.7865 21.3699 21.7865 22.0674C21.7865 22.2224 21.7768 22.358 21.7477 22.513H18.8609H18.8513ZM24.3342 21.1181H25.5742L25.0898 23.3364C24.9736 23.8595 24.8767 24.3536 24.8767 24.867C24.8767 26.1263 25.6904 26.5816 26.8529 26.5816C27.1435 26.5816 27.4729 26.4945 27.7732 26.4266L28.0638 25.0995C27.8507 25.1867 27.5407 25.2545 27.2404 25.2545C26.8626 25.2545 26.5913 25.0123 26.5913 24.6151C26.5913 24.3633 26.6301 24.1308 26.6688 23.9758L27.2888 21.1084H28.8194L29.0906 19.8587H27.56L27.9766 17.9116L26.1457 18.5122L25.8551 19.8587H24.6151L24.3439 21.1084L24.3342 21.1181ZM32.5489 26.4266H34.2442L35.8716 19.0644H35.9007L36.6176 26.4266H38.3225L42.3427 19.0644H42.3717L40.6959 26.4266H42.5752L44.4739 17.5435H41.5096L38.0125 23.9467H37.9835L37.3828 17.5435H34.4379L32.5586 26.4266H32.5489ZM48.4165 26.4266H49.8599C50.0149 25.1867 50.664 22.6196 50.664 21.738C50.664 20.1978 49.4337 19.7134 48.1162 19.7134C47.351 19.7134 46.6147 19.849 45.8882 20.1106L45.646 21.4765C46.3241 21.1568 47.0507 20.9631 47.7966 20.9631C48.3972 20.9631 49.1043 21.1568 49.1043 21.8155C49.1043 22.0093 49.1043 22.1933 49.0559 22.3774H48.4553C46.8472 22.3774 44.4351 22.5421 44.4351 24.7023C44.4351 25.9132 45.2779 26.5719 46.4597 26.5719C47.3994 26.5719 47.9903 26.1554 48.5715 25.4095H48.6006L48.4262 26.417L48.4165 26.4266ZM46.9344 25.332C46.4985 25.332 46.0723 25.0995 46.0723 24.6442C46.0723 23.5399 47.4478 23.3946 48.2712 23.3946H48.8718C48.6006 24.4505 48.2131 25.332 46.9344 25.332ZM51.5068 26.4266H53.2117L53.9092 23.1233C54.1223 22.1449 54.5582 21.0406 55.7401 21.0406C56.2922 21.0406 56.67 21.4087 56.67 21.9608C56.67 22.4452 56.5732 22.8908 56.4763 23.3364L55.8369 26.4266H57.5419L58.2297 23.2396C58.3169 22.8327 58.4428 22.3096 58.4428 21.8155C58.4428 20.5175 57.5903 19.7134 56.3019 19.7134C55.5657 19.7134 54.9167 20.0718 54.442 20.4981H54.4129L54.5292 19.8587H52.863C52.8339 20.0622 52.7758 20.4012 52.6983 20.7984L51.4874 26.417L51.5068 26.4266ZM63.2767 26.4266H64.7201C64.8751 25.1867 65.5241 22.6196 65.5241 21.738C65.5241 20.1978 64.2938 19.7134 62.9764 19.7134C62.2111 19.7134 61.4749 19.849 60.7483 20.1106L60.5062 21.4765C61.1843 21.1568 61.9108 20.9631 62.6567 20.9631C63.2573 20.9631 63.9645 21.1568 63.9645 21.8155C63.9645 22.0093 63.9645 22.1933 63.916 22.3774H63.3154C61.7074 22.3774 59.2953 22.5421 59.2953 24.7023C59.2953 25.9132 60.138 26.5719 61.3199 26.5719C62.2595 26.5719 62.8505 26.1554 63.4317 25.4095H63.4607L63.2864 26.417L63.2767 26.4266ZM61.7849 25.332C61.3489 25.332 60.9227 25.0995 60.9227 24.6442C60.9227 23.5399 62.2983 23.3946 63.1217 23.3946H63.7223C63.4511 24.4505 63.0636 25.332 61.7849 25.332ZM66.1635 28.8097C67.0063 29.1294 67.8975 29.2553 68.7887 29.2553C71.1814 29.2553 72.1114 27.8507 72.528 25.7098L73.5742 20.779C73.6613 20.3625 73.7388 20.0428 73.7873 19.8587H72.1502L71.9564 20.8178C71.5495 20.13 70.823 19.7134 69.9608 19.7134C67.8297 19.7134 66.6381 21.6896 66.6381 23.6464C66.6381 25.0898 67.3259 26.4266 68.9146 26.4266C69.8543 26.4266 70.6874 25.9713 71.1136 25.177H71.1427C70.7358 26.6688 70.4646 27.9282 68.6628 27.9282C67.9265 27.9282 67.2775 27.6957 66.5994 27.4147L66.1635 28.8V28.8097ZM70.1837 21.0406C70.978 21.0406 71.4236 21.6509 71.4236 22.4161C71.4236 23.6658 70.8618 25.0995 69.4959 25.0995C68.7306 25.0995 68.4109 24.4214 68.4109 23.6367C68.4109 22.6583 68.9437 21.0406 70.1837 21.0406ZM80.5393 23.6755C80.6361 23.1911 80.7039 22.7068 80.7039 22.2127C80.7039 20.5465 79.6383 19.7134 78.0206 19.7134C75.87 19.7134 74.291 21.6702 74.291 23.7142C74.291 25.7582 75.56 26.5816 77.449 26.5816C78.1465 26.5816 78.8731 26.417 79.5415 26.2135L79.7546 24.867C79.1152 25.1576 78.4468 25.3417 77.7397 25.3417C76.5675 25.3417 75.9185 24.8961 75.9185 23.6852H80.5393V23.6755ZM76.1413 22.513C76.4706 21.6121 76.9259 20.9728 77.9818 20.9728C78.6987 20.9728 79.0668 21.3699 79.0668 22.0674C79.0668 22.2224 79.0571 22.358 79.0281 22.513H76.1413ZM81.2174 26.4266H82.9223L83.6004 23.3074C83.8135 22.4258 84.1332 21.0406 85.2957 21.0406C85.7316 21.0406 86.0997 21.3506 86.0997 21.8349C86.0997 22.2321 85.9738 22.8424 85.8866 23.2299L85.1988 26.4266H86.9037L87.5818 23.3074C87.795 22.4161 88.0953 21.0406 89.2771 21.0406C89.713 21.0406 90.0811 21.3506 90.0811 21.8349C90.0811 22.2321 89.9552 22.8424 89.868 23.2299L89.1802 26.4266H90.8852L91.573 23.2977C91.7183 22.7649 91.8636 22.0965 91.8636 21.5152C91.8636 20.5175 91.0208 19.7231 90.0424 19.7231C89.1221 19.7231 88.1728 20.1203 87.7368 20.9728H87.7078C87.6206 20.1881 86.8165 19.7231 86.0416 19.7231C85.2666 19.7231 84.4916 20.0815 84.0266 20.7499H83.9976L84.1526 19.8684H82.5639C82.5251 20.0718 82.4767 20.3431 82.4186 20.595L81.2174 26.4266ZM98.9255 23.6755C99.0224 23.1911 99.0902 22.7068 99.0902 22.2127C99.0902 20.5465 98.0149 19.7134 96.4069 19.7134C94.2563 19.7134 92.6773 21.6702 92.6773 23.7142C92.6773 25.7582 93.9463 26.5816 95.8353 26.5816C96.5328 26.5816 97.2593 26.417 97.9277 26.2135L98.1409 24.867C97.5015 25.1576 96.8331 25.3417 96.1259 25.3417C94.9538 25.3417 94.3047 24.8961 94.3047 23.6852H98.9255V23.6755ZM94.5372 22.513C94.8666 21.6121 95.3219 20.9728 96.3875 20.9728C97.1043 20.9728 97.4725 21.3699 97.4725 22.0674C97.4725 22.2224 97.4628 22.358 97.4337 22.513H94.5469H94.5372ZM99.6133 26.4266H101.318L102.016 23.1233C102.229 22.1449 102.665 21.0406 103.847 21.0406C104.399 21.0406 104.777 21.4087 104.777 21.9608C104.777 22.4452 104.67 22.8908 104.583 23.3364L103.943 26.4266H105.648L106.336 23.2396C106.423 22.8327 106.549 22.3096 106.549 21.8155C106.549 20.5175 105.697 19.7134 104.408 19.7134C103.672 19.7134 103.023 20.0718 102.549 20.4981H102.519L102.636 19.8587H100.97C100.94 20.0622 100.882 20.4012 100.805 20.7984L99.5939 26.417L99.6133 26.4266ZM107.799 21.1181H109.039L108.555 23.3364C108.438 23.8595 108.341 24.3536 108.341 24.867C108.341 26.1263 109.155 26.5816 110.318 26.5816C110.608 26.5816 110.938 26.4945 111.238 26.4266L111.529 25.0995C111.315 25.1867 111.005 25.2545 110.705 25.2545C110.318 25.2545 110.056 25.0123 110.056 24.6151C110.056 24.3633 110.095 24.1308 110.134 23.9758L110.754 21.1084H112.284L112.555 19.8587H111.025L111.441 17.9116L109.61 18.5122L109.32 19.8587H108.08L107.809 21.1084L107.799 21.1181ZM115.907 26.4266H121.167L121.468 25.022H117.98L119.569 17.5338H117.786L115.907 26.417V26.4266ZM122.243 26.4266H123.948L125.352 19.8684H123.647L122.252 26.4266H122.243ZM123.909 18.6769H125.614L125.972 17.0494H124.267L123.909 18.6769ZM125.788 26.4266H127.493L128.171 23.3074C128.384 22.4258 128.704 21.0406 129.866 21.0406C130.302 21.0406 130.67 21.3506 130.67 21.8349C130.67 22.2321 130.544 22.8424 130.457 23.2299L129.77 26.4266H131.474L132.153 23.3074C132.366 22.4161 132.666 21.0406 133.848 21.0406C134.284 21.0406 134.652 21.3506 134.652 21.8349C134.652 22.2321 134.526 22.8424 134.439 23.2299L133.751 26.4266H135.456L136.144 23.2977C136.289 22.7649 136.434 22.0965 136.434 21.5152C136.434 20.5175 135.592 19.7231 134.613 19.7231C133.693 19.7231 132.743 20.1203 132.308 20.9728H132.279C132.191 20.1881 131.387 19.7231 130.612 19.7231C129.837 19.7231 129.062 20.0815 128.597 20.7499H128.568L128.723 19.8684H127.135C127.096 20.0718 127.047 20.3431 126.999 20.595L125.798 26.4266H125.788ZM137.103 26.4266H138.808L140.212 19.8684H138.507L137.112 26.4266H137.103ZM138.769 18.6769H140.474L140.832 17.0494H139.127L138.769 18.6769ZM141.045 21.1181H142.285L141.801 23.3364C141.685 23.8595 141.588 24.3536 141.588 24.867C141.588 26.1263 142.402 26.5816 143.564 26.5816C143.855 26.5816 144.184 26.4945 144.484 26.4266L144.775 25.0995C144.562 25.1867 144.252 25.2545 143.952 25.2545C143.564 25.2545 143.303 25.0123 143.303 24.6151C143.303 24.3633 143.341 24.1308 143.38 23.9758L144 21.1084H145.531L145.802 19.8587H144.271L144.688 17.9116L142.857 18.5122L142.566 19.8587H141.326L141.055 21.1084L141.045 21.1181ZM151.982 23.6755C152.079 23.1911 152.147 22.7068 152.147 22.2127C152.147 20.5465 151.081 19.7134 149.464 19.7134C147.313 19.7134 145.734 21.6702 145.734 23.7142C145.734 25.7582 147.003 26.5816 148.892 26.5816C149.59 26.5816 150.316 26.417 150.984 26.2135L151.198 24.867C150.558 25.1576 149.89 25.3417 149.183 25.3417C148.01 25.3417 147.361 24.8961 147.361 23.6852H151.982V23.6755ZM147.584 22.513C147.914 21.6121 148.379 20.9728 149.435 20.9728C150.151 20.9728 150.519 21.3699 150.519 22.0674C150.519 22.2224 150.51 22.358 150.481 22.513H147.594H147.584ZM159.073 16.8848L158.25 20.6531C157.717 20.0428 157.068 19.7231 156.225 19.7231C153.997 19.7231 152.932 21.9027 152.932 23.8595C152.932 25.2836 153.629 26.5816 155.189 26.5816C156.186 26.5816 156.816 26.1748 157.33 25.4579H157.359L157.194 26.4266H158.783C158.821 26.0973 158.918 25.5354 159.025 24.9736L160.798 16.8751H159.093L159.073 16.8848ZM154.704 23.7045C154.704 22.7261 155.276 21.0406 156.496 21.0406C157.359 21.0406 157.727 21.8252 157.727 22.5905C157.727 23.8014 156.991 25.2545 155.741 25.2545C154.898 25.2545 154.695 24.3633 154.695 23.7045M172.984 44.4836H173.023C173.846 44.2317 174.689 43.9314 175.541 43.5826L175.493 43.3405H171.095L171.337 43.5633C171.686 43.8829 172.054 44.1833 172.432 44.4642L172.461 44.4932H172.974L172.984 44.4836ZM177.527 42.6817L177.556 42.6624C178.109 42.3814 178.661 42.0908 179.213 41.7711L179.62 41.529H169.584L169.719 41.7324C169.942 42.0424 170.175 42.3427 170.427 42.6333L170.465 42.6817H177.537H177.527ZM180.627 40.8702L180.656 40.8509C181.083 40.5602 181.489 40.2599 181.896 39.95L182.197 39.7175H168.625L168.702 39.8918C168.828 40.2018 168.983 40.5021 169.138 40.7927L169.177 40.8605H180.627V40.8702ZM182.981 39.0684L183.02 39.0394C183.349 38.7487 183.669 38.4484 183.979 38.1384L184.202 37.9253H168.063L168.102 38.0803C168.179 38.3903 168.266 38.6906 168.354 38.9812L168.383 39.0684H182.991H182.981ZM184.773 37.2666L184.812 37.2182C185.064 36.9179 185.316 36.6176 185.548 36.3269L185.713 36.1235H167.772L167.792 36.2688C167.821 36.5691 167.86 36.8694 167.908 37.1697L167.927 37.2763H184.783L184.773 37.2666ZM186.226 35.4551L186.265 35.4067C186.488 35.1064 186.711 34.8061 186.914 34.5154L187.05 34.312H167.734V34.4379C167.734 34.5736 167.734 34.7189 167.734 34.8545C167.734 35.0192 167.734 35.1839 167.734 35.3388V35.4648H186.226V35.4551ZM187.495 33.6533L187.534 33.5952C187.738 33.2949 187.931 32.9945 188.115 32.7039L188.241 32.5102H167.889L167.869 32.6264C167.83 32.9267 167.801 33.227 167.772 33.5273V33.663H167.898H187.495V33.6533ZM188.639 31.8418L188.677 31.774C188.861 31.464 189.026 31.1637 189.191 30.8827L189.297 30.689H168.228L168.208 30.7859C168.14 31.0862 168.082 31.3865 168.024 31.6868L167.995 31.8418H188.648H188.639ZM189.636 30.04L189.675 29.9721C189.84 29.6428 189.995 29.3425 190.121 29.0809L190.208 28.8969H168.712L168.683 28.9841C168.586 29.2844 168.499 29.5847 168.421 29.885L168.373 30.0496H189.636V30.04ZM190.508 28.2285L190.547 28.151C190.712 27.7732 190.789 27.56 190.799 27.56L190.915 27.2404L190.615 27.405C190.14 27.6569 189.694 27.8507 189.278 27.9863L189.317 28.2381H190.518L190.508 28.2285ZM185.8 28.2285L185.849 27.9863C185.645 27.8991 185.49 27.8216 185.393 27.7538C185.5 27.6569 185.674 27.5019 185.887 27.2985L186.12 27.0757H169.371L169.342 27.1532C169.225 27.4535 169.109 27.7538 169.003 28.0444L168.944 28.2188H185.81L185.8 28.2285ZM186.759 26.4266L186.798 26.3879C187.06 26.107 187.321 25.8067 187.573 25.4967L187.786 25.2836H170.175L170.146 25.361C170 25.6614 169.865 25.9617 169.729 26.2523L169.652 26.4266H186.769H186.759ZM191.874 24.6248C192.368 24.5958 192.843 24.247 193.376 23.6949L193.579 23.4817H189.762L189.985 23.7045C190.353 24.063 190.857 24.3826 191.525 24.5958C191.603 24.6151 191.68 24.6345 191.758 24.6345H191.874V24.6248ZM188.125 24.6248L188.164 24.557C188.319 24.2664 188.454 23.9564 188.571 23.6561L188.639 23.4817H171.134L171.095 23.5495C170.921 23.8498 170.766 24.1502 170.601 24.4408L170.504 24.6248H188.125ZM188.871 22.8133L188.9 22.7261C189.026 22.329 189.113 21.9996 189.162 21.8252L189.2 21.6702H172.248L172.209 21.7284C172.015 22.0287 171.822 22.329 171.647 22.6196L171.531 22.8133H188.89H188.871ZM194.121 22.8133L194.16 22.7649C194.373 22.4936 194.606 22.1933 194.838 21.8737L194.984 21.6702H188.929L188.958 21.8252C188.997 22.0093 189.084 22.358 189.288 22.7455L189.326 22.8133H194.121ZM195.458 21.0115L195.497 20.9631C195.701 20.6821 195.923 20.3818 196.146 20.0718L196.291 19.8684H196.04H173.497L173.459 19.9169C173.236 20.2172 173.023 20.5175 172.81 20.8081L172.664 21.0018H195.449L195.458 21.0115ZM196.776 19.2L196.815 19.1516C197.028 18.8609 197.25 18.5606 197.483 18.2603L197.638 18.0569H197.376H174.922L174.883 18.1053C174.641 18.4057 174.389 18.706 174.156 18.9966L173.992 19.2H196.766H196.776ZM198.171 17.3982L198.209 17.3497C198.442 17.0494 198.684 16.7588 198.936 16.4585L199.11 16.2454H198.839H176.539L176.501 16.2842C176.22 16.5845 175.948 16.8848 175.687 17.1754L175.493 17.3885H198.171V17.3982ZM199.692 15.5964L199.73 15.5576C200.002 15.2573 200.273 14.9667 200.554 14.6664L200.757 14.4533H200.457H178.331L178.293 14.492C177.983 14.7923 177.673 15.0829 177.372 15.3832L177.159 15.5964H199.682H199.692ZM201.426 13.7849L201.464 13.7461C201.774 13.4458 202.094 13.1455 202.423 12.8549L202.675 12.6321H202.346H180.366L180.327 12.6612C179.978 12.9518 179.639 13.2521 179.3 13.5524L179.048 13.7752H201.426V13.7849ZM203.47 11.983L203.508 11.954C203.886 11.6537 204.274 11.3534 204.671 11.0628L204.991 10.8303H204.593H182.642L182.613 10.8593C182.216 11.1596 181.828 11.4503 181.451 11.7506L181.16 11.9734H203.47V11.983ZM205.988 10.1812L206.017 10.1619C206.511 9.85187 207.015 9.56125 207.548 9.27064L207.49 9.02846H185.209L185.18 9.04783C184.735 9.33845 184.299 9.63875 183.872 9.93905L183.543 10.1715H205.998L205.988 10.1812ZM209.398 8.36973C209.485 8.34067 209.524 8.33098 209.553 8.3116C210.28 8.00161 210.997 7.72069 211.684 7.46882L211.636 7.22664H188.115L188.086 7.24601C187.592 7.53663 187.098 7.82724 186.604 8.13723L186.226 8.36973H209.388H209.398ZM214.319 6.56791C215.501 6.20949 216.586 5.90918 217.603 5.67669L217.574 5.42482H191.37C190.818 5.72513 190.266 6.02543 189.704 6.33542L189.268 6.5776H214.319V6.56791ZM222.776 4.75641C223.222 4.70797 223.619 4.66922 223.977 4.64985L224.258 4.63047L224.065 4.43673C223.793 4.1558 223.503 3.89425 223.193 3.64238L223.154 3.61332H195.187C194.538 3.90394 193.879 4.20424 193.211 4.51423L193.269 4.75641H222.786H222.776ZM222.282 2.95459L221.914 2.7221C221.41 2.40242 220.868 2.10212 220.287 1.82119H220.258L200.05 1.8115C199.169 2.08274 198.316 2.38305 197.444 2.71241L197.493 2.95459H222.282ZM217.855 1.15278L217.894 0.900908C216.334 0.426236 214.591 0.116246 212.692 0H209.437C207.529 0.106559 205.494 0.397175 203.344 0.891221L203.373 1.14309H217.845L217.855 1.15278ZM222.36 6.44198H225.498C225.401 6.29667 225.305 6.14168 225.198 5.99637C225.101 5.85106 224.985 5.69606 224.869 5.55076H224.2C223.658 5.81231 223.028 6.11261 222.36 6.44198ZM218.882 8.24379H226.515C226.37 7.94349 226.215 7.64319 226.05 7.35257H220.558C220.015 7.6335 219.453 7.9338 218.882 8.24379ZM215.734 10.0456H227.242C227.145 9.74531 227.029 9.445 226.913 9.15439H217.245C216.741 9.445 216.237 9.74531 215.734 10.0456ZM212.924 11.8571H227.717C227.659 11.5568 227.591 11.2565 227.513 10.9659H214.261C213.806 11.2565 213.36 11.5568 212.924 11.8571ZM227.872 12.7677H211.655C211.258 13.0583 210.88 13.3586 210.512 13.6589H227.959C227.939 13.3586 227.91 13.0583 227.872 12.7677ZM208.517 15.4704H227.969C227.988 15.1701 227.988 14.8698 227.988 14.5792H209.437C209.108 14.8795 208.807 15.1701 208.517 15.4704ZM227.891 16.381H207.703C207.654 16.4392 207.606 16.4973 207.558 16.5651C207.364 16.817 207.19 17.0494 207.025 17.2723H227.775C227.823 16.9719 227.862 16.6716 227.901 16.381M227.591 18.1828H206.385C206.182 18.5025 205.998 18.8028 205.853 19.0741H227.378C227.465 18.7738 227.533 18.4735 227.6 18.1828M227.097 19.9943H205.407C205.271 20.3237 205.184 20.624 205.136 20.8856H226.787C226.903 20.5853 227 20.2947 227.097 19.9943ZM226.419 21.7962H205.146C205.281 22.3193 205.669 22.5808 206.085 22.6874H207.093C207.093 22.6874 207.122 22.6874 207.131 22.6777C207.906 22.4161 208.517 22.2418 209.33 22.6874H226.021C226.167 22.3871 226.302 22.0868 226.428 21.7962M225.566 23.6077H210.367C210.561 23.9564 210.58 24.2761 210.774 24.4989H225.091C225.266 24.1986 225.421 23.908 225.576 23.6077M206.463 26.3007C206.318 26.0585 206.192 25.797 204.971 25.6904C204.496 25.6517 203.983 25.8648 203.421 26.3007H206.463ZM224.53 25.4095H211.52C210.318 25.7582 210.173 26.0682 210.067 26.3007H223.958C224.152 26.0004 224.346 25.7001 224.53 25.4095ZM201.697 28.1025H222.689C222.912 27.8022 223.135 27.5116 223.338 27.2113H202.452C202.21 27.4729 201.958 27.7732 201.697 28.1025ZM200.36 29.914H221.255C221.507 29.6137 221.749 29.3134 221.982 29.0228H200.999C200.796 29.3037 200.583 29.604 200.36 29.914ZM219.676 31.7158C219.948 31.4155 220.219 31.1249 220.48 30.8246H199.74C199.682 30.9118 199.624 30.999 199.566 31.0862C199.42 31.2993 199.265 31.5124 199.11 31.7158H219.686H219.676ZM198.364 32.6361C198.103 32.9364 197.822 33.2367 197.531 33.5273H217.933C218.233 33.227 218.524 32.9267 218.814 32.6361H198.364ZM195.604 35.3292H216.044C216.363 35.0289 216.683 34.7382 216.993 34.4379H196.582C196.262 34.7286 195.933 35.0289 195.594 35.3292M193.521 37.1407H214.009C214.358 36.8404 214.697 36.5401 215.036 36.2494H194.557C194.218 36.5401 193.879 36.8404 193.521 37.1407ZM191.022 38.9425H211.83C212.198 38.6422 212.566 38.3516 212.924 38.0513H192.349C191.932 38.3516 191.487 38.6519 191.022 38.9425ZM187.767 40.7443H209.398C209.824 40.4537 210.241 40.1534 210.658 39.8531H189.481C188.929 40.1631 188.358 40.4537 187.776 40.7443M183.747 42.5558H206.453C206.976 42.2652 207.48 41.9746 207.974 41.6646H185.829C185.132 41.9746 184.434 42.2749 183.747 42.5558ZM178.913 44.3576H202.772C203.421 44.0767 204.061 43.7764 204.7 43.4664H181.412C180.501 43.8054 179.659 44.1058 178.913 44.3576ZM200.486 45.2682H176.065C175.89 45.3263 175.793 45.3457 175.793 45.3457L175.377 46.0141C175.483 46.0626 175.6 46.111 175.706 46.1594H197.812C198.713 45.8882 199.604 45.5879 200.486 45.2682ZM184.928 48H186.536C188.997 47.9516 191.554 47.6416 194.102 47.1088H178.438C180.453 47.6513 182.632 47.9419 184.928 48ZM59.3437 38.4969H60.5933L61.1164 37.1213H63.5576L64.071 38.4969H65.4079L63.0442 32.4714H61.6783L59.334 38.4969H59.3437ZM63.2283 36.1623H61.4652L62.337 33.6727H62.3564L63.2283 36.1623ZM71.9758 37.4022C71.6949 37.5475 71.133 37.6541 70.6583 37.6541C69.3699 37.6541 68.6143 36.7338 68.6143 35.5035C68.6143 34.2733 69.3893 33.3239 70.6293 33.3239C71.0652 33.3239 71.4721 33.382 71.937 33.6436L72.0242 32.6264C71.5883 32.4521 71.0555 32.3746 70.6583 32.3746C68.6143 32.3746 67.355 33.5273 67.355 35.5907C67.355 37.6541 68.7112 38.6034 70.6583 38.6034C71.1136 38.6034 71.5883 38.5162 72.0339 38.4097L71.9855 37.4022H71.9758ZM72.7508 35.2807C73.1382 34.9901 73.6323 34.7964 74.1263 34.7964C74.8044 34.7964 75.1241 35.0385 75.1241 35.7554H74.4848C74.0004 35.7554 73.4289 35.7941 72.9929 36.017C72.557 36.2301 72.2373 36.6176 72.2373 37.286C72.2373 38.1288 73.0026 38.6034 73.7873 38.6034C74.3104 38.6034 74.8916 38.3225 75.1629 37.8381H75.1822C75.1822 37.9738 75.1822 38.2741 75.2307 38.4969H76.2478C76.2188 38.1578 76.2091 37.8381 76.1994 37.5088C76.1994 37.1794 76.18 36.8404 76.18 36.3948V35.8232C76.18 34.5154 75.6182 33.9536 74.262 33.9536C73.7679 33.9536 73.1673 34.0795 72.712 34.2926L72.7508 35.2807ZM74.0682 37.751C73.6517 37.751 73.332 37.5863 73.332 37.2085C73.332 36.5304 74.0973 36.4432 74.6204 36.4432H75.1241C75.1241 36.7919 75.0757 37.1116 74.8819 37.3538C74.6979 37.596 74.4266 37.751 74.0682 37.751ZM77.0325 38.4969H78.1853V36.8694C78.1853 36.2301 78.1853 35.0579 79.1249 35.0579C79.3284 35.0579 79.5415 35.0967 79.6383 35.1548V33.9923C79.5221 33.9536 79.3962 33.9536 79.2799 33.9536C78.5921 33.9536 78.1175 34.6511 78.0593 35.0676H78.04V34.0601H77.0131V38.5066L77.0325 38.4969ZM80.2971 35.2807C80.6846 34.9901 81.1786 34.7964 81.6727 34.7964C82.3508 34.7964 82.6704 35.0385 82.6704 35.7554H82.0311C81.5467 35.7554 80.9752 35.7941 80.5393 36.017C80.1033 36.2301 79.7837 36.6176 79.7837 37.286C79.7837 38.1288 80.5489 38.6034 81.3336 38.6034C81.8567 38.6034 82.4379 38.3225 82.7092 37.8381H82.7286C82.7286 37.9738 82.7286 38.2741 82.777 38.4969H83.7941C83.7651 38.1578 83.7554 37.8381 83.7457 37.5088C83.7457 37.1794 83.7263 36.8404 83.7263 36.3948V35.8232C83.7263 34.5154 83.1645 33.9536 81.8083 33.9536C81.3142 33.9536 80.7136 34.0795 80.2583 34.2926L80.2971 35.2807ZM81.6145 37.751C81.198 37.751 80.8783 37.5863 80.8783 37.2085C80.8783 36.5304 81.6436 36.4432 82.1667 36.4432H82.6704C82.6704 36.7919 82.622 37.1116 82.4283 37.3538C82.2442 37.596 81.973 37.751 81.6145 37.751ZM85.7219 38.4969H87.0297L88.6668 34.0505H87.514L86.4388 37.286H86.4194L85.315 34.0505H84.0751L85.7219 38.4969ZM92.6192 37.3053C92.1833 37.5475 91.7086 37.751 91.1467 37.751C90.4299 37.751 89.9261 37.3441 89.8777 36.6272H92.9485C92.9485 35.0773 92.4835 33.9439 90.8367 33.9439C89.4515 33.9439 88.7734 35.0095 88.7734 36.2882C88.7734 37.751 89.6258 38.5937 91.0983 38.5937C91.7183 38.5937 92.2026 38.4775 92.6289 38.245V37.3053H92.6192ZM89.8777 35.8426C89.9261 35.242 90.2555 34.7964 90.9045 34.7964C91.5536 34.7964 91.8151 35.2807 91.8442 35.8426H89.8777ZM93.5782 38.4969H94.731V32.0258H93.5782V38.4969ZM102.287 32.6167C101.774 32.4618 101.221 32.3649 100.514 32.3649C98.4702 32.3649 97.2109 33.5177 97.2109 35.581C97.2109 37.6444 98.5671 38.5937 100.514 38.5937C101.163 38.5937 101.822 38.4581 102.461 38.2838V35.0385H100.03V35.9879H101.309V37.5572C101.105 37.6057 100.844 37.6444 100.514 37.6444C99.2258 37.6444 98.4702 36.7241 98.4702 35.4938C98.4702 34.2636 99.2452 33.3142 100.65 33.3142C101.134 33.3142 101.735 33.4208 102.2 33.6339L102.277 32.6167H102.287ZM103.353 38.4969H104.505V36.8694C104.505 36.2301 104.505 35.0579 105.445 35.0579C105.648 35.0579 105.862 35.0967 105.958 35.1548V33.9923C105.842 33.9536 105.716 33.9536 105.6 33.9536C104.912 33.9536 104.438 34.6511 104.379 35.0676H104.36V34.0601H103.333V38.5066L103.353 38.4969ZM108.264 33.9439C106.956 33.9439 105.939 34.8351 105.939 36.2979C105.939 37.5766 106.792 38.5937 108.264 38.5937C109.736 38.5937 110.599 37.5766 110.599 36.2979C110.599 34.8254 109.591 33.9439 108.264 33.9439ZM108.264 37.7025C107.382 37.7025 107.15 36.8985 107.15 36.1623C107.15 35.4938 107.508 34.8448 108.264 34.8448C109.02 34.8448 109.388 35.4842 109.388 36.1623C109.388 36.9082 109.155 37.7025 108.264 37.7025ZM115.287 34.0505H114.134V36.2301C114.134 36.8016 113.95 37.7025 113.117 37.7025C112.371 37.7025 112.371 36.9663 112.371 36.4238V34.0505H111.219V36.8597C111.219 37.8575 111.674 38.6034 112.73 38.6034C113.33 38.6034 113.834 38.3225 114.193 37.8963H114.212V38.4969H115.307V34.0505H115.287ZM116.169 40.3084H117.321V37.9835H117.341C117.748 38.4775 118.155 38.5937 118.649 38.5937C120.034 38.5937 120.538 37.47 120.538 36.2591C120.538 35.0482 120.034 33.9439 118.678 33.9439C118 33.9439 117.554 34.2442 117.292 34.6801H117.273V34.0505H116.169V40.3084ZM117.341 36.2591C117.341 35.6392 117.631 34.8448 118.377 34.8448C119.123 34.8448 119.336 35.6682 119.336 36.2591C119.336 36.8501 119.123 37.7025 118.358 37.7025C117.593 37.7025 117.341 36.8888 117.341 36.2591ZM127.328 37.4022C127.047 37.5475 126.486 37.6541 126.011 37.6541C124.723 37.6541 123.967 36.7338 123.967 35.5035C123.967 34.2733 124.742 33.3239 125.982 33.3239C126.418 33.3239 126.825 33.382 127.29 33.6436L127.377 32.6264C126.941 32.4521 126.408 32.3746 126.011 32.3746C123.967 32.3746 122.708 33.5273 122.708 35.5907C122.708 37.6541 124.064 38.6034 126.011 38.6034C126.466 38.6034 126.941 38.5162 127.386 38.4097L127.338 37.4022H127.328ZM129.905 33.9439C128.597 33.9439 127.58 34.8351 127.58 36.2979C127.58 37.5766 128.433 38.5937 129.905 38.5937C131.378 38.5937 132.24 37.5766 132.24 36.2979C132.24 34.8254 131.232 33.9439 129.905 33.9439ZM129.905 37.7025C129.024 37.7025 128.791 36.8985 128.791 36.1623C128.791 35.4938 129.15 34.8448 129.905 34.8448C130.661 34.8448 131.029 35.4842 131.029 36.1623C131.029 36.9082 130.796 37.7025 129.905 37.7025ZM132.821 38.4969H133.974V36.3366C133.974 35.7554 134.071 34.8448 134.836 34.8448C135.504 34.8448 135.504 35.4357 135.504 35.8426V38.4872H136.657V36.3269C136.657 35.7457 136.754 34.8351 137.519 34.8351C138.178 34.8351 138.178 35.426 138.178 35.8329V38.4775H139.331V35.6779C139.331 34.6898 139.021 33.9342 137.926 33.9342C137.384 33.9342 136.802 34.1861 136.531 34.7189C136.279 34.1667 135.843 33.9342 135.223 33.9342C134.787 33.9342 134.264 34.1183 133.906 34.6607H133.887V34.0408H132.811V38.4872L132.821 38.4969ZM140.203 40.3084H141.355V37.9835H141.375C141.782 38.4775 142.188 38.5937 142.683 38.5937C144.068 38.5937 144.572 37.47 144.572 36.2591C144.572 35.0482 144.068 33.9439 142.712 33.9439C142.034 33.9439 141.588 34.2442 141.336 34.6801H141.317V34.0505H140.212V40.3084H140.203ZM141.375 36.2591C141.375 35.6392 141.665 34.8448 142.411 34.8448C143.157 34.8448 143.37 35.6682 143.37 36.2591C143.37 36.8501 143.157 37.7025 142.392 37.7025C141.627 37.7025 141.375 36.8888 141.375 36.2591ZM145.405 35.2807C145.792 34.9901 146.286 34.7964 146.78 34.7964C147.458 34.7964 147.778 35.0385 147.778 35.7554H147.139C146.654 35.7554 146.083 35.7941 145.647 36.017C145.211 36.2301 144.891 36.6176 144.891 37.286C144.891 38.1288 145.657 38.6034 146.441 38.6034C146.964 38.6034 147.546 38.3225 147.817 37.8381H147.836C147.836 37.9738 147.836 38.2741 147.885 38.4969H148.902C148.873 38.1578 148.863 37.8381 148.853 37.5088C148.853 37.1794 148.834 36.8404 148.834 36.3948V35.8232C148.834 34.5154 148.272 33.9536 146.916 33.9536C146.422 33.9536 145.821 34.0795 145.366 34.2926L145.405 35.2807ZM146.732 37.751C146.315 37.751 145.996 37.5863 145.996 37.2085C145.996 36.5304 146.761 36.4432 147.284 36.4432H147.788C147.788 36.7919 147.739 37.1116 147.546 37.3538C147.361 37.596 147.09 37.751 146.732 37.751ZM149.667 38.4969H150.82V36.3269C150.82 35.7554 151.004 34.8545 151.837 34.8545C152.583 34.8545 152.593 35.5907 152.593 36.1332V38.5066H153.745V35.707C153.745 34.7092 153.29 33.9633 152.234 33.9633C151.633 33.9633 151.139 34.1667 150.771 34.6704H150.752V34.0698H149.657V38.5162L149.667 38.4969ZM155.421 34.0505H154.142L155.838 38.7197C155.838 39.1944 155.557 39.514 155.082 39.514C154.801 39.514 154.637 39.485 154.491 39.4365L154.414 40.289C154.685 40.3665 154.956 40.4052 155.237 40.4052C156.448 40.4052 156.71 39.4365 157.087 38.4581L158.754 34.0505H157.581L156.506 37.2957H156.487L155.421 34.0505Z" fill="white"/>
</g>
<defs>
<clipPath id="clip0_3743_2451">
<rect width="227.988" height="48" fill="white"/>
</clipPath>
</defs>
</svg>
